<?xml version="1.0" encoding="utf-8"?>
<!-- Generator: Adobe Illustrator 25.1.0, SVG Export Plug-In . SVG Version: 6.00 Build 0)  -->
<svg version="1.1" baseProfile="basic" id="Calque_1"
	 xmlns="http://www.w3.org/2000/svg" xmlns:xlink="http://www.w3.org/1999/xlink" x="0px" y="0px" viewBox="0 0 1920 1080"
	 xml:space="preserve">
<style type="text/css">
	.st0{fill:#FFE858;}
	.st1{fill:#406F8A;}
	.st2{fill:#F5E83D;}
	.st3{fill:#328ACA;}
	.st4{fill:#B6C8D6;}
	.st5{fill:#FFFFFF;}
	.st6{fill:#DAEAF9;}
	.st7{fill:#F5FAFF;}
	.st8{fill:none;stroke:#49A239;stroke-width:4;stroke-miterlimit:10;}
	.st9{fill:#58B264;}
	.st10{fill:#EA5A73;}
	.st11{opacity:0.14;fill:#010202;}
	.st12{fill:none;stroke:#49A239;stroke-width:5;stroke-miterlimit:10;}
	.st13{fill:#2D9338;}
	.st14{fill:#8B684B;}
	.st15{fill:#FDFFFD;}
	.st16{font-family:'MyriadPro-Regular';}
	.st17{font-size:31.5209px;}
	.st18{font-size:20.9644px;}
	.st19{fill:#4C4C4C;}
</style>
<g>
	<path class="st0" d="M1104.94,150.45h-30.47v-13.28h30.47c0.91,0,1.69-0.33,2.34-0.98c0.65-0.65,0.98-1.43,0.98-2.34
		c0-0.94-0.33-1.56-0.98-1.86s-1.43-0.44-2.34-0.44h-13.87c-2.31,0-4.48-0.44-6.49-1.32s-3.78-2.08-5.27-3.59
		c-1.5-1.51-2.68-3.28-3.54-5.3c-0.86-2.02-1.29-4.18-1.29-6.49c0-2.31,0.43-4.48,1.29-6.49c0.86-2.02,2.04-3.78,3.54-5.27
		c1.5-1.5,3.26-2.68,5.27-3.54c2.02-0.86,4.18-1.29,6.49-1.29h27v13.28h-27c-0.91,0-1.69,0.33-2.34,0.98
		c-0.65,0.65-0.98,1.43-0.98,2.34c0,0.94,0.33,1.75,0.98,2.42c0.65,0.67,1.43,1,2.34,1h13.87c2.28,0,4.43,0.38,6.45,1.15
		c2.02,0.77,3.78,1.83,5.27,3.2s2.69,3.01,3.56,4.93c0.88,1.92,1.32,4.02,1.32,6.3c0,2.31-0.44,4.47-1.32,6.47s-2.07,3.76-3.56,5.27
		s-3.26,2.7-5.27,3.56C1109.37,150.02,1107.22,150.45,1104.94,150.45z"/>
</g>
<g>
	<path class="st1" d="M1104.94,147.45h-30.47v-13.28h30.47c0.91,0,1.69-0.33,2.34-0.98c0.65-0.65,0.98-1.43,0.98-2.34
		c0-0.94-0.33-1.56-0.98-1.86s-1.43-0.44-2.34-0.44h-13.87c-2.31,0-4.48-0.44-6.49-1.32s-3.78-2.08-5.27-3.59
		c-1.5-1.51-2.68-3.28-3.54-5.3c-0.86-2.02-1.29-4.18-1.29-6.49c0-2.31,0.43-4.48,1.29-6.49c0.86-2.02,2.04-3.78,3.54-5.27
		c1.5-1.5,3.26-2.68,5.27-3.54c2.02-0.86,4.18-1.29,6.49-1.29h27v13.28h-27c-0.91,0-1.69,0.33-2.34,0.98
		c-0.65,0.65-0.98,1.43-0.98,2.34c0,0.94,0.33,1.75,0.98,2.42c0.65,0.67,1.43,1,2.34,1h13.87c2.28,0,4.43,0.38,6.45,1.15
		c2.02,0.77,3.78,1.83,5.27,3.2s2.69,3.01,3.56,4.93c0.88,1.92,1.32,4.02,1.32,6.3c0,2.31-0.44,4.47-1.32,6.47s-2.07,3.76-3.56,5.27
		s-3.26,2.7-5.27,3.56C1109.37,147.02,1107.22,147.45,1104.94,147.45z"/>
</g>
<path class="st2" d="M773.85,79.68c0,1.35-0.13,2.79-0.39,4.34c-0.26,1.55-0.67,3.08-1.24,4.59c-0.57,1.52-1.31,2.96-2.23,4.34
	c-0.92,1.38-2.02,2.54-3.31,3.49l-4.96-3.49c0.83-0.98,1.45-1.91,1.88-2.8s0.77-1.78,1.01-2.67c-0.92-0.15-1.78-0.46-2.57-0.92
	s-1.48-1.04-2.04-1.72c-0.57-0.69-1.02-1.48-1.36-2.37c-0.34-0.89-0.51-1.82-0.51-2.8c0-1.04,0.21-2.04,0.62-2.99
	c0.42-0.95,0.98-1.79,1.7-2.51c0.72-0.72,1.55-1.29,2.48-1.7c0.93-0.41,1.94-0.62,3.01-0.62c1.1,0,2.14,0.21,3.1,0.62
	c0.96,0.42,1.8,0.98,2.5,1.7c0.71,0.72,1.26,1.55,1.68,2.51C773.65,77.64,773.85,78.64,773.85,79.68z"/>
<path class="st0" d="M754.66,118.61c0,3.13-0.41,6.13-1.22,9.03c-0.81,2.9-1.95,5.61-3.42,8.13s-3.25,4.83-5.33,6.92
	c-2.08,2.08-4.38,3.87-6.89,5.35c-2.51,1.49-5.22,2.64-8.13,3.45c-2.91,0.81-5.93,1.22-9.05,1.22s-6.13-0.41-9.03-1.22
	c-2.9-0.81-5.61-1.96-8.13-3.45c-2.53-1.49-4.83-3.27-6.92-5.35c-2.08-2.08-3.87-4.39-5.35-6.92s-2.63-5.24-3.45-8.13
	c-0.81-2.89-1.22-5.9-1.22-9.03s0.41-6.14,1.22-9.05c0.81-2.91,1.96-5.62,3.45-8.13c1.49-2.51,3.27-4.81,5.35-6.89
	c2.08-2.08,4.39-3.86,6.92-5.33c2.53-1.47,5.24-2.61,8.13-3.42c2.89-0.81,5.9-1.22,9.03-1.22s6.14,0.41,9.05,1.22
	c2.91,0.81,5.62,1.95,8.13,3.42c2.51,1.47,4.81,3.25,6.89,5.33c2.08,2.08,3.86,4.38,5.33,6.89c1.47,2.51,2.61,5.22,3.42,8.13
	C754.25,112.47,754.66,115.49,754.66,118.61z M741.56,118.61c0-2.88-0.55-5.6-1.65-8.16c-1.1-2.56-2.6-4.78-4.48-6.66
	c-1.88-1.88-4.11-3.38-6.66-4.48c-2.56-1.1-5.28-1.65-8.16-1.65c-2.91,0-5.64,0.55-8.18,1.65c-2.54,1.1-4.76,2.6-6.66,4.48
	c-1.9,1.88-3.4,4.11-4.5,6.66c-1.1,2.56-1.65,5.28-1.65,8.16c0,2.88,0.55,5.58,1.65,8.11c1.1,2.53,2.6,4.74,4.5,6.64
	c1.9,1.9,4.12,3.4,6.66,4.5c2.54,1.1,5.27,1.65,8.18,1.65c2.88,0,5.6-0.55,8.16-1.65c2.56-1.1,4.78-2.6,6.66-4.5
	s3.38-4.11,4.48-6.64C741.01,124.2,741.56,121.5,741.56,118.61z"/>
<path class="st1" d="M773.85,75.68c0,1.35-0.13,2.79-0.39,4.34c-0.26,1.55-0.67,3.08-1.24,4.59c-0.57,1.52-1.31,2.96-2.23,4.34
	c-0.92,1.38-2.02,2.54-3.31,3.49l-4.96-3.49c0.83-0.98,1.45-1.91,1.88-2.8s0.77-1.78,1.01-2.67c-0.92-0.15-1.78-0.46-2.57-0.92
	s-1.48-1.04-2.04-1.72c-0.57-0.69-1.02-1.48-1.36-2.37c-0.34-0.89-0.51-1.82-0.51-2.8c0-1.04,0.21-2.04,0.62-2.99
	c0.42-0.95,0.98-1.79,1.7-2.51c0.72-0.72,1.55-1.29,2.48-1.7c0.93-0.41,1.94-0.62,3.01-0.62c1.1,0,2.14,0.21,3.1,0.62
	c0.96,0.42,1.8,0.98,2.5,1.7c0.71,0.72,1.26,1.55,1.68,2.51C773.65,73.64,773.85,74.64,773.85,75.68z"/>
<path class="st0" d="M915.21,151.29h-12.54v-49.21h3.03l4.14,5.84c2.02-1.84,4.32-3.25,6.89-4.25c2.58-0.99,5.24-1.49,8-1.49h11.08
	v12.5h-11.08c-1.32,0-2.56,0.24-3.72,0.73c-1.17,0.49-2.18,1.17-3.03,2.02c-0.86,0.86-1.53,1.87-2.02,3.03
	c-0.49,1.17-0.74,2.41-0.74,3.72V151.29z"/>
<path class="st0" d="M988.36,151.29h-3.03l-4.87-6.76c-1.2,1.07-2.46,2.08-3.79,3.01c-1.33,0.93-2.73,1.75-4.2,2.44
	c-1.47,0.69-2.98,1.23-4.53,1.63c-1.55,0.4-3.12,0.6-4.71,0.6c-3.46,0-6.71-0.58-9.76-1.75c-3.05-1.17-5.71-2.86-8-5.08
	c-2.28-2.22-4.08-4.94-5.4-8.16c-1.32-3.22-1.98-6.88-1.98-10.98c0-3.83,0.66-7.35,1.98-10.55c1.32-3.2,3.12-5.95,5.4-8.25
	c2.28-2.3,4.95-4.08,8-5.35c3.05-1.27,6.3-1.91,9.76-1.91c1.59,0,3.17,0.2,4.73,0.6c1.56,0.4,3.08,0.95,4.55,1.65
	c1.47,0.71,2.87,1.53,4.2,2.48c1.33,0.95,2.58,1.98,3.74,3.08l4.87-5.84h3.03V151.29z M975.73,126.24c0-1.72-0.33-3.38-0.99-4.99
	c-0.66-1.61-1.55-3.03-2.69-4.27c-1.13-1.24-2.46-2.24-3.98-2.99s-3.13-1.13-4.85-1.13c-1.72,0-3.33,0.29-4.85,0.87
	c-1.52,0.58-2.83,1.44-3.95,2.57c-1.12,1.13-2,2.53-2.64,4.2c-0.65,1.67-0.97,3.58-0.97,5.72s0.32,4.05,0.97,5.72
	c0.64,1.67,1.52,3.07,2.64,4.2c1.12,1.13,2.43,1.99,3.95,2.57c1.52,0.58,3.13,0.87,4.85,0.87c1.71,0,3.33-0.38,4.85-1.13
	c1.52-0.75,2.84-1.75,3.98-2.99c1.14-1.24,2.03-2.67,2.69-4.27C975.4,129.62,975.73,127.96,975.73,126.24z"/>
<path class="st0" d="M1045.48,151.29h-3.03l-4.87-6.76c-1.19,1.07-2.46,2.08-3.79,3.01c-1.33,0.93-2.73,1.75-4.2,2.44
	c-1.47,0.69-2.98,1.23-4.53,1.63c-1.55,0.4-3.12,0.6-4.71,0.6c-3.46,0-6.72-0.65-9.76-1.95c-3.05-1.3-5.71-3.11-8-5.42
	c-2.28-2.31-4.08-5.05-5.4-8.22c-1.32-3.17-1.98-6.63-1.98-10.36c0-3.71,0.66-7.15,1.98-10.34c1.32-3.19,3.12-5.94,5.4-8.27
	c2.28-2.33,4.95-4.15,8-5.47c3.05-1.32,6.3-1.98,9.76-1.98c1.1,0,2.24,0.09,3.42,0.27s2.33,0.48,3.45,0.9
	c1.12,0.41,2.17,0.96,3.15,1.63c0.98,0.67,1.81,1.5,2.48,2.48V82.5h12.63V151.29z M1032.85,126.24c0-1.72-0.33-3.38-0.99-4.99
	c-0.66-1.61-1.55-3.03-2.69-4.27c-1.13-1.24-2.46-2.24-3.98-2.99c-1.52-0.75-3.13-1.13-4.85-1.13c-1.72,0-3.33,0.31-4.85,0.92
	c-1.52,0.61-2.84,1.49-3.96,2.64c-1.12,1.15-2,2.55-2.64,4.2c-0.65,1.65-0.97,3.52-0.97,5.61c0,1.81,0.32,3.52,0.97,5.15
	c0.64,1.62,1.52,3.05,2.64,4.27c1.12,1.23,2.44,2.19,3.96,2.89c1.52,0.71,3.13,1.06,4.85,1.06c1.72,0,3.33-0.38,4.85-1.13
	c1.52-0.75,2.84-1.75,3.98-2.99c1.14-1.24,2.03-2.67,2.69-4.27C1032.52,129.62,1032.85,127.96,1032.85,126.24z"/>
<path class="st0" d="M1069.84,88.7c0,1.17-0.22,2.25-0.67,3.26c-0.44,1.01-1.05,1.89-1.81,2.64c-0.77,0.75-1.66,1.35-2.69,1.79
	c-1.03,0.44-2.12,0.67-3.29,0.67c-1.16,0-2.26-0.22-3.29-0.67c-1.03-0.45-1.91-1.04-2.66-1.79c-0.75-0.75-1.35-1.63-1.79-2.64
	c-0.45-1.01-0.67-2.1-0.67-3.26c0-1.13,0.22-2.21,0.67-3.24c0.44-1.02,1.04-1.91,1.79-2.66c0.75-0.75,1.64-1.35,2.66-1.79
	c1.03-0.44,2.12-0.67,3.29-0.67c1.16,0,2.26,0.22,3.29,0.67c1.03,0.45,1.92,1.04,2.69,1.79s1.37,1.64,1.81,2.66
	C1069.61,86.49,1069.84,87.57,1069.84,88.7z M1067.68,151.29h-12.64v-49.21h12.64V151.29z"/>
<path class="st0" d="M1147.43,139.25c0.49,0.15,0.98,0.25,1.47,0.3c0.49,0.05,0.98,0.07,1.47,0.07c1.22,0,2.4-0.17,3.54-0.51
	c1.13-0.34,2.2-0.82,3.19-1.45s1.89-1.39,2.66-2.3c0.78-0.9,1.42-1.91,1.91-3.01l9.19,9.23c-1.17,1.65-2.51,3.14-4.02,4.46
	c-1.52,1.32-3.15,2.44-4.91,3.36c-1.77,0.92-3.61,1.61-5.56,2.09s-3.95,0.71-6,0.71c-3.46,0-6.72-0.64-9.76-1.93
	c-3.05-1.29-5.71-3.08-8-5.38c-2.28-2.3-4.08-5.03-5.4-8.2c-1.32-3.17-1.98-6.66-1.98-10.45c0-3.89,0.66-7.44,1.98-10.66
	c1.32-3.22,3.12-5.96,5.4-8.23c2.28-2.27,4.95-4.03,8-5.28c3.05-1.26,6.3-1.88,9.76-1.88c2.05,0,4.06,0.24,6.02,0.73
	c1.96,0.49,3.82,1.2,5.58,2.11c1.76,0.92,3.41,2.04,4.94,3.38c1.53,1.33,2.88,2.83,4.04,4.48L1147.43,139.25z M1153.86,113.38
	c-0.58-0.21-1.16-0.35-1.72-0.41c-0.57-0.06-1.16-0.09-1.77-0.09c-1.72,0-3.33,0.31-4.85,0.94c-1.52,0.63-2.83,1.52-3.95,2.69
	c-1.12,1.17-2,2.57-2.64,4.2c-0.65,1.64-0.97,3.49-0.97,5.54c0,0.46,0.02,0.98,0.07,1.56c0.05,0.58,0.12,1.17,0.23,1.77
	c0.1,0.6,0.24,1.17,0.39,1.72c0.15,0.55,0.35,1.04,0.6,1.47L1153.86,113.38z"/>
<path class="st1" d="M754.66,114.51c0,3.13-0.41,6.13-1.22,9.03c-0.81,2.9-1.95,5.61-3.42,8.13s-3.25,4.83-5.33,6.92
	c-2.08,2.08-4.38,3.87-6.89,5.35c-2.51,1.49-5.22,2.64-8.13,3.45c-2.91,0.81-5.93,1.22-9.05,1.22s-6.13-0.41-9.03-1.22
	c-2.9-0.81-5.61-1.96-8.13-3.45c-2.53-1.49-4.83-3.27-6.92-5.35c-2.08-2.08-3.87-4.39-5.35-6.92s-2.63-5.24-3.45-8.13
	c-0.81-2.89-1.22-5.9-1.22-9.03s0.41-6.14,1.22-9.05c0.81-2.91,1.96-5.62,3.45-8.13c1.49-2.51,3.27-4.81,5.35-6.89
	c2.08-2.08,4.39-3.86,6.92-5.33c2.53-1.47,5.24-2.61,8.13-3.42c2.89-0.81,5.9-1.22,9.03-1.22s6.14,0.41,9.05,1.22
	c2.91,0.81,5.62,1.95,8.13,3.42c2.51,1.47,4.81,3.25,6.89,5.33c2.08,2.08,3.86,4.38,5.33,6.89c1.47,2.51,2.61,5.22,3.42,8.13
	C754.25,108.36,754.66,111.38,754.66,114.51z M741.56,114.51c0-2.88-0.55-5.6-1.65-8.16c-1.1-2.56-2.6-4.78-4.48-6.66
	c-1.88-1.88-4.11-3.38-6.66-4.48c-2.56-1.1-5.28-1.65-8.16-1.65c-2.91,0-5.64,0.55-8.18,1.65c-2.54,1.1-4.76,2.6-6.66,4.48
	c-1.9,1.88-3.4,4.11-4.5,6.66c-1.1,2.56-1.65,5.28-1.65,8.16c0,2.88,0.55,5.58,1.65,8.11c1.1,2.53,2.6,4.74,4.5,6.64
	c1.9,1.9,4.12,3.4,6.66,4.5c2.54,1.1,5.27,1.65,8.18,1.65c2.88,0,5.6-0.55,8.16-1.65c2.56-1.1,4.78-2.6,6.66-4.5
	s3.38-4.11,4.48-6.64C741.01,120.09,741.56,117.39,741.56,114.51z"/>
<path class="st1" d="M915.21,147.18h-12.54V97.96h3.03l4.14,5.84c2.02-1.84,4.32-3.25,6.89-4.25c2.58-0.99,5.24-1.49,8-1.49h11.08
	v12.5h-11.08c-1.32,0-2.56,0.24-3.72,0.73c-1.17,0.49-2.18,1.17-3.03,2.02c-0.86,0.86-1.53,1.87-2.02,3.03
	c-0.49,1.17-0.74,2.41-0.74,3.72V147.18z"/>
<path class="st1" d="M988.36,147.18h-3.03l-4.87-6.76c-1.2,1.07-2.46,2.08-3.79,3.01c-1.33,0.93-2.73,1.75-4.2,2.44
	c-1.47,0.69-2.98,1.23-4.53,1.63c-1.55,0.4-3.12,0.6-4.71,0.6c-3.46,0-6.72-0.58-9.76-1.75c-3.05-1.17-5.71-2.86-8-5.08
	c-2.28-2.22-4.08-4.94-5.4-8.16c-1.32-3.22-1.98-6.88-1.98-10.98c0-3.83,0.66-7.35,1.98-10.55c1.32-3.2,3.12-5.95,5.4-8.25
	c2.28-2.3,4.95-4.08,8-5.35c3.05-1.27,6.3-1.91,9.76-1.91c1.59,0,3.17,0.2,4.73,0.6c1.56,0.4,3.08,0.95,4.55,1.65
	c1.47,0.71,2.87,1.53,4.2,2.48c1.33,0.95,2.58,1.98,3.74,3.08l4.87-5.84h3.03V147.18z M975.73,122.13c0-1.72-0.33-3.38-0.99-4.99
	c-0.66-1.61-1.55-3.03-2.69-4.27c-1.13-1.24-2.46-2.24-3.98-2.99s-3.13-1.13-4.85-1.13c-1.72,0-3.33,0.29-4.85,0.87
	c-1.52,0.58-2.83,1.44-3.95,2.57c-1.12,1.13-2,2.53-2.64,4.2c-0.65,1.67-0.97,3.58-0.97,5.72s0.32,4.05,0.97,5.72
	c0.64,1.67,1.52,3.07,2.64,4.2c1.12,1.13,2.44,1.99,3.95,2.57c1.52,0.58,3.13,0.87,4.85,0.87c1.71,0,3.33-0.38,4.85-1.13
	c1.52-0.75,2.84-1.75,3.98-2.99c1.14-1.24,2.03-2.67,2.69-4.27C975.4,125.51,975.73,123.85,975.73,122.13z"/>
<path class="st1" d="M1045.48,147.18h-3.03l-4.87-6.76c-1.19,1.07-2.46,2.08-3.79,3.01c-1.33,0.93-2.73,1.75-4.2,2.44
	c-1.47,0.69-2.98,1.23-4.53,1.63c-1.55,0.4-3.12,0.6-4.71,0.6c-3.46,0-6.72-0.65-9.76-1.95c-3.05-1.3-5.71-3.11-8-5.42
	c-2.28-2.31-4.08-5.05-5.4-8.22c-1.32-3.17-1.98-6.63-1.98-10.36c0-3.71,0.66-7.15,1.98-10.34c1.32-3.19,3.12-5.94,5.4-8.27
	c2.28-2.33,4.95-4.15,8-5.47c3.05-1.32,6.3-1.98,9.76-1.98c1.1,0,2.24,0.09,3.42,0.27s2.33,0.48,3.45,0.9
	c1.12,0.41,2.17,0.96,3.15,1.63c0.98,0.67,1.81,1.5,2.48,2.48V78.39h12.63V147.18z M1032.85,122.13c0-1.72-0.33-3.38-0.99-4.99
	c-0.66-1.61-1.55-3.03-2.69-4.27c-1.13-1.24-2.46-2.24-3.98-2.99c-1.52-0.75-3.13-1.13-4.85-1.13c-1.72,0-3.33,0.31-4.85,0.92
	c-1.52,0.61-2.84,1.49-3.96,2.64c-1.12,1.15-2,2.55-2.64,4.2c-0.65,1.65-0.97,3.52-0.97,5.61c0,1.81,0.32,3.52,0.97,5.15
	c0.64,1.62,1.52,3.05,2.64,4.27c1.12,1.23,2.44,2.19,3.96,2.89c1.52,0.71,3.13,1.06,4.85,1.06c1.72,0,3.33-0.38,4.85-1.13
	c1.52-0.75,2.84-1.75,3.98-2.99c1.14-1.24,2.03-2.67,2.69-4.27C1032.52,125.51,1032.85,123.85,1032.85,122.13z"/>
<path class="st1" d="M1069.84,84.59c0,1.17-0.22,2.25-0.67,3.26c-0.44,1.01-1.05,1.89-1.81,2.64c-0.77,0.75-1.66,1.35-2.69,1.79
	c-1.03,0.44-2.12,0.67-3.29,0.67c-1.16,0-2.26-0.22-3.29-0.67c-1.03-0.45-1.91-1.04-2.66-1.79c-0.75-0.75-1.35-1.63-1.79-2.64
	c-0.45-1.01-0.67-2.1-0.67-3.26c0-1.13,0.22-2.21,0.67-3.24c0.44-1.02,1.04-1.91,1.79-2.66c0.75-0.75,1.64-1.35,2.66-1.79
	c1.03-0.44,2.12-0.67,3.29-0.67c1.16,0,2.26,0.22,3.29,0.67c1.03,0.45,1.92,1.04,2.69,1.79s1.37,1.64,1.81,2.66
	C1069.61,82.38,1069.84,83.46,1069.84,84.59z M1067.68,147.18h-12.64V97.96h12.64V147.18z"/>
<path class="st1" d="M1147.43,135.14c0.49,0.15,0.98,0.25,1.47,0.3c0.49,0.05,0.98,0.07,1.47,0.07c1.22,0,2.4-0.17,3.54-0.51
	c1.13-0.34,2.2-0.82,3.19-1.45s1.89-1.39,2.66-2.3c0.78-0.9,1.42-1.91,1.91-3.01l9.19,9.23c-1.17,1.65-2.51,3.14-4.02,4.46
	c-1.52,1.32-3.15,2.44-4.91,3.36c-1.77,0.92-3.61,1.61-5.56,2.09s-3.95,0.71-6,0.71c-3.46,0-6.72-0.64-9.76-1.93
	c-3.05-1.29-5.71-3.08-8-5.38c-2.28-2.3-4.08-5.03-5.4-8.2c-1.32-3.17-1.98-6.66-1.98-10.45c0-3.89,0.66-7.44,1.98-10.66
	c1.32-3.22,3.12-5.96,5.4-8.23c2.28-2.27,4.95-4.03,8-5.28c3.05-1.26,6.3-1.88,9.76-1.88c2.05,0,4.06,0.24,6.02,0.73
	c1.96,0.49,3.82,1.2,5.58,2.11c1.76,0.92,3.41,2.04,4.94,3.38c1.53,1.33,2.88,2.83,4.04,4.48L1147.43,135.14z M1153.86,109.27
	c-0.58-0.21-1.16-0.35-1.72-0.41c-0.57-0.06-1.16-0.09-1.77-0.09c-1.72,0-3.33,0.31-4.85,0.94c-1.52,0.63-2.83,1.52-3.95,2.69
	c-1.12,1.17-2,2.57-2.64,4.2c-0.65,1.64-0.97,3.49-0.97,5.54c0,0.46,0.02,0.98,0.07,1.56c0.05,0.58,0.12,1.17,0.23,1.77
	c0.1,0.6,0.24,1.17,0.39,1.72c0.15,0.55,0.35,1.04,0.6,1.47L1153.86,109.27z"/>
<path class="st0" d="M893.11,151.29h-3.03l-4.87-6.76c-1.2,1.07-2.46,2.08-3.79,3.01c-1.33,0.93-2.73,1.75-4.2,2.44
	c-1.47,0.69-2.98,1.23-4.53,1.63c-1.55,0.4-3.12,0.6-4.71,0.6c-3.46,0-6.72-0.58-9.76-1.75c-3.05-1.17-5.71-2.86-8-5.08
	c-2.28-2.22-4.08-4.94-5.4-8.16c-1.32-3.22-1.98-6.88-1.98-10.98c0-3.83,0.66-7.35,1.98-10.55c1.32-3.2,3.12-5.95,5.4-8.25
	c2.28-2.3,4.95-4.08,8-5.35c3.05-1.27,6.3-1.91,9.76-1.91c1.59,0,3.17,0.2,4.73,0.6c1.56,0.4,3.08,0.95,4.55,1.65
	c1.47,0.71,2.87,1.53,4.2,2.48c1.33,0.95,2.58,1.98,3.74,3.08l4.87-5.84h3.03V151.29z M880.47,126.24c0-1.72-0.33-3.38-0.99-4.99
	c-0.66-1.61-1.55-3.03-2.69-4.27c-1.13-1.24-2.46-2.24-3.98-2.99s-3.13-1.13-4.85-1.13c-1.72,0-3.33,0.29-4.85,0.87
	c-1.52,0.58-2.83,1.44-3.95,2.57c-1.12,1.13-2,2.53-2.64,4.2c-0.65,1.67-0.97,3.58-0.97,5.72s0.32,4.05,0.97,5.72
	c0.64,1.67,1.52,3.07,2.64,4.2c1.12,1.13,2.44,1.99,3.95,2.57s3.13,0.87,4.85,0.87c1.71,0,3.33-0.38,4.85-1.13
	c1.52-0.75,2.84-1.75,3.98-2.99c1.14-1.24,2.03-2.67,2.69-4.27C880.14,129.62,880.47,127.96,880.47,126.24z"/>
<path class="st1" d="M893.11,147.18h-3.03l-4.87-6.76c-1.2,1.07-2.46,2.08-3.79,3.01c-1.33,0.93-2.73,1.75-4.2,2.44
	c-1.47,0.69-2.98,1.23-4.53,1.63c-1.55,0.4-3.12,0.6-4.71,0.6c-3.46,0-6.72-0.58-9.76-1.75c-3.05-1.17-5.71-2.86-8-5.08
	c-2.28-2.22-4.08-4.94-5.4-8.16c-1.32-3.22-1.98-6.88-1.98-10.98c0-3.83,0.66-7.35,1.98-10.55c1.32-3.2,3.12-5.95,5.4-8.25
	c2.28-2.3,4.95-4.08,8-5.35c3.05-1.27,6.3-1.91,9.76-1.91c1.59,0,3.17,0.2,4.73,0.6c1.56,0.4,3.08,0.95,4.55,1.65
	c1.47,0.71,2.87,1.53,4.2,2.48c1.33,0.95,2.58,1.98,3.74,3.08l4.87-5.84h3.03V147.18z M880.47,122.13c0-1.72-0.33-3.38-0.99-4.99
	c-0.66-1.61-1.55-3.03-2.69-4.27c-1.13-1.24-2.46-2.24-3.98-2.99s-3.13-1.13-4.85-1.13c-1.72,0-3.33,0.29-4.85,0.87
	c-1.52,0.58-2.83,1.44-3.95,2.57c-1.12,1.13-2,2.53-2.64,4.2c-0.65,1.67-0.97,3.58-0.97,5.72s0.32,4.05,0.97,5.72
	c0.64,1.67,1.52,3.07,2.64,4.2c1.12,1.13,2.44,1.99,3.95,2.57s3.13,0.87,4.85,0.87c1.71,0,3.33-0.38,4.85-1.13
	c1.52-0.75,2.84-1.75,3.98-2.99c1.14-1.24,2.03-2.67,2.69-4.27C880.14,125.51,880.47,123.85,880.47,122.13z"/>
<path class="st0" d="M799.55,151.29h-13.19V85.39h26.38c2.42,0,4.75,0.31,6.98,0.94c2.24,0.63,4.33,1.52,6.27,2.66
	c1.95,1.15,3.72,2.53,5.33,4.14c1.61,1.61,2.99,3.39,4.14,5.35c1.15,1.96,2.04,4.06,2.67,6.29c0.63,2.24,0.94,4.57,0.94,6.99
	c0,3.61-0.69,7.02-2.07,10.22s-3.26,6-5.65,8.39c-2.39,2.39-5.18,4.27-8.38,5.65c-3.2,1.38-6.61,2.07-10.23,2.07h-13.19V151.29z
	 M799.55,98.58v26.38h13.19c1.81,0,3.51-0.34,5.1-1.03c1.59-0.69,2.98-1.63,4.18-2.83c1.2-1.2,2.14-2.6,2.82-4.2
	c0.69-1.61,1.04-3.32,1.04-5.12s-0.35-3.52-1.04-5.12c-0.69-1.61-1.63-3.01-2.82-4.2c-1.2-1.2-2.59-2.14-4.18-2.83
	c-1.6-0.69-3.29-1.03-5.1-1.03H799.55z"/>
<path class="st1" d="M799.55,147.18h-13.19V81.28h26.38c2.42,0,4.75,0.31,6.98,0.94c2.24,0.63,4.33,1.52,6.27,2.66
	c1.95,1.15,3.72,2.53,5.33,4.14c1.61,1.61,2.99,3.39,4.14,5.35c1.15,1.96,2.04,4.06,2.67,6.29c0.63,2.24,0.94,4.57,0.94,6.99
	c0,3.61-0.69,7.02-2.07,10.22s-3.26,6-5.65,8.39c-2.39,2.39-5.18,4.27-8.38,5.65c-3.2,1.38-6.61,2.07-10.23,2.07h-13.19V147.18z
	 M799.55,94.47v26.38h13.19c1.81,0,3.51-0.34,5.1-1.03c1.59-0.69,2.98-1.63,4.18-2.83c1.2-1.2,2.14-2.6,2.82-4.2
	c0.69-1.61,1.04-3.32,1.04-5.12s-0.35-3.52-1.04-5.12c-0.69-1.61-1.63-3.01-2.82-4.2c-1.2-1.2-2.59-2.14-4.18-2.83
	c-1.6-0.69-3.29-1.03-5.1-1.03H799.55z"/>
<polygon class="st3" points="1920,1081 1920,991.86 0,990 0,1081 "/>
<g>
	<ellipse class="st4" cx="1276.84" cy="60.78" rx="32.25" ry="31.04"/>
	<circle class="st4" cx="1304.23" cy="68.32" r="34.76"/>
	<circle class="st2" cx="1311" cy="48.81" r="34.76"/>
	<circle class="st5" cx="1313.99" cy="48.81" r="34.76"/>
	<ellipse class="st4" cx="1341.97" cy="65.02" rx="33.34" ry="34.24"/>
	<ellipse class="st5" cx="1339.6" cy="57.85" rx="34.76" ry="31.58"/>
	<ellipse class="st5" cx="1366.03" cy="64.41" rx="22.78" ry="19.85"/>
	<circle class="st4" cx="1252.14" cy="71.99" r="17.43"/>
	<circle class="st6" cx="1273.55" cy="58.71" r="29.83"/>
	<circle class="st4" cx="1303.38" cy="64.56" r="32.15"/>
	<circle class="st6" cx="1309.65" cy="46.51" r="32.15"/>
	<circle class="st6" cx="1312.41" cy="46.51" r="32.15"/>
	<circle class="st6" cx="1301.59" cy="56.5" r="32.15"/>
	<circle class="st4" cx="1339.6" cy="61.03" r="32.15"/>
	<circle class="st4" cx="1335.33" cy="68.2" r="32.15"/>
	<circle class="st4" cx="1367.64" cy="70.41" r="22.76"/>
	<ellipse class="st6" cx="1367.64" cy="69.09" rx="22.76" ry="21.09"/>
	<ellipse class="st6" cx="1340.31" cy="54.56" rx="30.94" ry="26.67"/>
	<ellipse class="st6" cx="1336.31" cy="69.56" rx="30.94" ry="26.67"/>
	<ellipse class="st6" cx="1301.59" cy="71.9" rx="30.94" ry="26.67"/>
	<circle class="st6" cx="1361" cy="58.71" r="16.13"/>
	<circle class="st6" cx="1250.71" cy="70.2" r="16.13"/>
</g>
<path class="st5" d="M1348.53,62.9c0,0,12.47-20.32,30.11-12.42C1377.13,45.47,1353.43,42.63,1348.53,62.9z"/>
<path class="st5" d="M1264.44,43.08c0,0,12.83-16.81,27.95-15.19C1291.31,26.12,1269.34,22.8,1264.44,43.08z"/>
<path class="st5" d="M1199.7,42.21c0,0,14.15-18.13,34.16-11.08C1232.14,26.66,1205.25,24.13,1199.7,42.21z"/>
<path class="st5" d="M1232.6,30.78c0,0,19.01-21.17,45.92-12.94C1276.21,12.61,1240.07,9.66,1232.6,30.78z"/>
<g>
	<g>
		<ellipse class="st4" cx="1380.68" cy="139.83" rx="15.43" ry="14.84"/>
		<circle class="st4" cx="1393.79" cy="143.43" r="16.62"/>
		<circle class="st2" cx="1397.03" cy="134.1" r="16.62"/>
		<circle class="st7" cx="1398.45" cy="134.1" r="16.62"/>
		<ellipse class="st4" cx="1411.84" cy="141.86" rx="15.94" ry="16.38"/>
		<ellipse class="st7" cx="1410.7" cy="138.43" rx="16.62" ry="15.1"/>
		<circle class="st4" cx="1423.01" cy="148.38" r="8.34"/>
		<ellipse class="st7" cx="1423.34" cy="141.57" rx="10.9" ry="9.49"/>
		<circle class="st4" cx="1368.87" cy="145.19" r="8.34"/>
		<circle class="st6" cx="1379.11" cy="138.84" r="14.27"/>
		<circle class="st6" cx="1393.38" cy="141.63" r="15.38"/>
		<circle class="st6" cx="1396.38" cy="133" r="15.38"/>
		<circle class="st6" cx="1397.7" cy="133" r="15.38"/>
		<circle class="st6" cx="1410.7" cy="139.95" r="15.38"/>
		<circle class="st6" cx="1424.11" cy="144.44" r="10.89"/>
		<circle class="st6" cx="1420.94" cy="138.84" r="7.71"/>
		<circle class="st6" cx="1368.19" cy="144.33" r="7.71"/>
	</g>
	<path class="st5" d="M1413.65,139.52c0,0,6.04-9.43,14.59-5.76C1427.5,131.43,1416.02,130.11,1413.65,139.52z"/>
	<path class="st5" d="M1398.45,130.54c0,0,6.04-9.43,14.59-5.76C1412.31,122.44,1400.82,121.13,1398.45,130.54z"/>
</g>
<g>
	<g>
		<ellipse class="st4" cx="636.44" cy="68.34" rx="22.88" ry="22.02"/>
		<circle class="st4" cx="655.88" cy="73.69" r="24.66"/>
		<circle class="st2" cx="660.68" cy="59.85" r="24.66"/>
		<circle class="st7" cx="662.8" cy="59.85" r="24.66"/>
		<ellipse class="st4" cx="682.65" cy="71.35" rx="23.65" ry="24.29"/>
		<ellipse class="st7" cx="680.97" cy="66.26" rx="24.66" ry="22.4"/>
		<circle class="st4" cx="699.22" cy="81.03" r="12.37"/>
		<ellipse class="st7" cx="699.72" cy="70.92" rx="16.16" ry="14.08"/>
		<circle class="st4" cx="618.92" cy="76.3" r="12.37"/>
		<circle class="st6" cx="634.11" cy="66.87" r="21.17"/>
		<circle class="st6" cx="655.28" cy="71.02" r="22.81"/>
		<circle class="st6" cx="659.72" cy="58.22" r="22.81"/>
		<circle class="st6" cx="661.68" cy="58.22" r="22.81"/>
		<circle class="st6" cx="680.97" cy="68.52" r="22.81"/>
		<circle class="st6" cx="700.86" cy="75.18" r="16.15"/>
		<circle class="st6" cx="696.15" cy="66.87" r="11.44"/>
		<circle class="st6" cx="617.9" cy="75.02" r="11.44"/>
	</g>
	<path class="st5" d="M685.34,67.89c0,0,8.96-13.99,21.64-8.55C705.88,55.88,688.85,53.93,685.34,67.89z"/>
	<path class="st5" d="M662.8,54.56c0,0,8.96-13.99,21.64-8.55C683.35,42.55,666.32,40.6,662.8,54.56z"/>
</g>
<g>
	<g>
		<ellipse class="st4" cx="1035.42" cy="169.78" rx="24.13" ry="23.22"/>
		<circle class="st4" cx="1062.99" cy="176.92" r="32.62"/>
		<ellipse class="st4" cx="1149.4" cy="179.83" rx="31.28" ry="32.13"/>
		<ellipse class="st4" cx="1105.4" cy="178.83" rx="31.28" ry="32.13"/>
		<ellipse class="st7" cx="1147.18" cy="173.1" rx="32.62" ry="29.63"/>
		<ellipse class="st7" cx="1063.18" cy="171.1" rx="32.62" ry="29.63"/>
		<ellipse class="st7" cx="1104.18" cy="175.1" rx="32.62" ry="29.63"/>
		<circle class="st4" cx="1178.32" cy="177.63" r="16.36"/>
		<ellipse class="st7" cx="1178.98" cy="164.26" rx="21.38" ry="18.63"/>
		<circle class="st4" cx="1009.1" cy="160.37" r="16.36"/>
		<circle class="st6" cx="1032.96" cy="168.23" r="22.32"/>
		<circle class="st6" cx="1062.19" cy="173.39" r="30.17"/>
		<circle class="st6" cx="1103.07" cy="177.46" r="30.17"/>
		<circle class="st6" cx="1105.66" cy="177.46" r="30.17"/>
		<circle class="st6" cx="1147.18" cy="176.08" r="30.17"/>
		<circle class="st6" cx="1180.49" cy="169.89" r="21.36"/>
		<circle class="st4" cx="1204.81" cy="168.92" r="10.7"/>
		<ellipse class="st7" cx="1205.24" cy="160.18" rx="13.98" ry="12.18"/>
		<circle class="st6" cx="1206.22" cy="163.86" r="13.97"/>
		<circle class="st6" cx="1167.26" cy="173.91" r="15.13"/>
		<circle class="st6" cx="1007.76" cy="158.69" r="15.13"/>
	</g>
	<path class="st5" d="M1151.19,167.84c0,0,19.04-10.97,30.61,3.14C1182.63,166.26,1163.82,153.59,1151.19,167.84z"/>
	<path class="st5" d="M1099.68,170.44c0,0,13.82-10.44,24.25-0.54C1124.12,166.12,1108.16,158.06,1099.68,170.44z"/>
	<path class="st5" d="M1038.87,163.31c0,0,16.44-5.45,23.14,7.28C1063.39,167.08,1050.88,154.32,1038.87,163.31z"/>
</g>
<g>
	<path class="st8" d="M306.07,880.59c0-17.24,13.97-31.21,31.21-31.21"/>
	<path class="st8" d="M291.75,880.59c0-25.15,20.38-45.53,45.53-45.53"/>
	<path class="st8" d="M338.74,865.22c-0.48-0.05-0.97-0.07-1.46-0.07c-8.53,0-15.44,6.91-15.44,15.44"/>
</g>
<g>
	<path class="st8" d="M118.57,798.65c18.25,0,33.04,14.79,33.04,33.04"/>
	<path class="st8" d="M118.57,783.49c26.62,0,48.2,21.58,48.2,48.2"/>
	<path class="st8" d="M134.83,833.25c0.05-0.51,0.08-1.03,0.08-1.55c0-9.03-7.32-16.35-16.35-16.35"/>
</g>
<g>
	<path class="st9" d="M0.69,1002.5h578.53c-31.89-17.21-180.79-117.17-304.87-63.99c-30.24-16.19-65.42-34.21-107.77-54.16
		c-63.6-29.95-118.5-43.06-165.89-44.03V1002.5z"/>
	<g>
		<rect x="178.26" y="878.38" class="st9" width="29.92" height="38.3"/>
		<polyline class="st9" points="214.38,878.98 193.22,857.82 172.06,878.98 		"/>
	</g>
	<g>
		<rect x="155.09" y="874.4" class="st9" width="15.46" height="19.78"/>
		<polyline class="st9" points="173.74,874.71 162.81,863.78 151.88,874.71 		"/>
	</g>
	<g>
		<rect x="213.41" y="899.05" class="st9" width="15.46" height="19.78"/>
		<polyline class="st9" points="232.06,899.36 221.13,888.43 210.21,899.36 		"/>
	</g>
	<path class="st3" d="M330.23,1002.5h55.55l1.86-1.26c0,0-93.01-8.33-64.49-17.05c28.52-8.71-48.8-45.69-48.8-45.69
		s64.92,39.25,10.97,41.14c-53.95,1.89,15.5,15.15,15.5,15.15L330.23,1002.5z"/>
	<path class="st10" d="M388.34,898.02c0-15.28-12.39-27.67-27.67-27.67c-15.28,0-27.67,12.39-27.67,27.67
		c0,15.28,27.67,49.76,27.67,49.76S388.34,913.31,388.34,898.02z"/>
	<ellipse class="st11" cx="111.19" cy="876.22" rx="7.8" ry="2.95"/>
	<path class="st10" d="M127.19,843.33c0-8.84-7.17-16-16-16s-16,7.17-16,16s16,28.78,16,28.78S127.19,852.17,127.19,843.33z"/>
</g>
<path class="st3" d="M0,1021c38-24,47-27,77-24s61.91-4.45,93-3s113.02,6.29,144.51,4.65S406,1015,415,1016
	s139.43-24.94,163.22-22.47C602,996,618,1009,618,1009l-374,46L0,1021z"/>
<g>
	<path class="st12" d="M1460.74,906.99c17.31-24.07,50.87-29.56,74.94-12.24"/>
	<path class="st12" d="M1440.74,892.6c25.26-35.12,74.21-43.12,109.33-17.86"/>
	<path class="st12" d="M1521.81,918.35c-0.63-0.55-1.28-1.08-1.97-1.57c-11.91-8.57-28.51-5.85-37.07,6.06"/>
</g>
<g>
	<path class="st13" d="M1510.1,947.9c-0.08-0.11-0.16-0.23-0.24-0.34c0.03-0.36,0.07-0.7,0.32-1c0.17-0.2,0.17-0.48-0.03-0.67
		c-0.37-0.36-0.79-0.32-1.24-0.12c-0.44,0.19-0.49,0.56-0.45,0.93c0.04,0.29,0.22,0.57,0.33,0.85c-0.43,0.5-1.12,0.61-1.58,1.08
		c-0.11,0.11-0.16,0.09-0.21-0.08c-0.08-0.25-0.31-0.16-0.31,0c0.01,0.94-0.84,1.04-1.38,1.37c-0.42,0.26-0.83,0.56-1.28,0.78
		c-0.4,0.2-0.69,0.32-0.87-0.3c0.05,0.6-0.2,0.93-0.65,1.18c-0.65,0.35-1.28,0.75-2.1,0.99c0.22-1.35,0.74-2.5,1.48-3.55
		c0.99-1.38,2.31-2.33,3.92-2.86c0.43-0.14,0.65-0.35,0.61-0.95c-0.64,1.14-1.51,0.94-2.42,0.61c-0.24-0.09-0.45,0.09-0.69,0.13
		c-0.63,0.09-1.14-0.42-1.82-0.22c-0.61,0.18-1.3,0-1.95-0.11c-0.22-0.04-0.43-0.1-0.66-0.16c0.02-0.35,0.29-0.47,0.48-0.63
		c1.85-1.52,3.95-2.22,6.35-1.93c0.19,0.02,0.46,0.15,0.57-0.05c0.15-0.28-0.22-0.33-0.33-0.5c-0.3-0.5-0.98-0.63-1.2-1.12
		c-0.26-0.57-0.76-0.71-1.18-1.01c-0.64-0.46-1.22-0.98-1.73-1.72c1.11-0.17,2.12-0.16,3.13,0.06c1.15,0.25,2.21,0.7,3.17,1.4
		c0.14,0.1,0.29,0.18,0.43,0.08c0.13-0.08,0.04-0.25,0.05-0.38c0.05-0.43-0.27-0.74-0.37-1.12c-0.21-0.77-0.23-0.76,0.54-0.98
		c-0.73-0.05-1.02-0.51-1.2-1.13c-0.17-0.57-0.38-1.13-0.35-1.71c0.02-0.4,0.35-0.11,0.49-0.04c1.76,0.92,3.09,2.24,3.88,4.08
		c0.5,1.15,0.64,2.37,0.62,3.82c2.45-2.89,5.37-3.79,8.98-2.93c-0.76,0.74-1.48,1.3-2.32,1.72c-0.16,0.08-0.3,0.05-0.46,0.01
		c-0.06-0.06-0.14-0.09-0.2-0.02c-0.02,0.02,0.03,0.09,0.05,0.14c0.09,0.53-0.41,0.48-0.65,0.69c-0.28,0.24-0.68,0.24-0.89,0.66
		c-0.15,0.3-0.63,0.44-1.14,0.76c1.38-0.04,2.55-0.03,3.7,0.35c1.52,0.51,2.76,1.4,3.8,2.6c0.07,0.08,0.16,0.2,0.15,0.28
		c-0.03,0.17-0.21,0.12-0.34,0.13c-0.27,0.02-0.54,0.04-0.81,0.03c-0.82-0.05-1.75,0.21-2.2-0.88c-0.2,0.3,0.15,0.56-0.07,0.68
		c-0.18,0.1-0.44,0.07-0.66,0.08c-0.53,0.02-1.03-0.13-1.57-0.13c-1.18,0.01-1.18-0.06-1.85-0.94c-0.05,0.56,0.16,0.82,0.7,1.08
		c2.1,1.01,3.45,2.7,4.1,4.93c0.18,0.62,0.35,1.24,0.29,2.02c-0.99-0.71-2.19-1.01-2.54-2.32c-0.24,0.51-0.54,0.18-0.81-0.02
		c-0.59-0.44-1.16-0.91-1.75-1.35c-0.41-0.3-0.75-0.63-0.54-1.37c-0.55,0.68-0.59,0.08-0.85-0.04c-0.58-0.26-0.91-0.75-1.39-1.08
		c0.11-0.17,0.24-0.33,0.32-0.52c0.19-0.43-0.01-0.78-0.28-1.1c-0.25-0.29-0.6-0.38-0.92-0.18c-0.34,0.21-0.4,0.6-0.26,0.97
		c0.11,0.29,0.02,0.58,0.07,0.87c-0.14,0.18-0.29,0.35-0.43,0.53C1510.94,948.41,1510.48,948.31,1510.1,947.9z"/>
	<path class="st14" d="M1510.1,947.9c0.39,0.41,0.85,0.51,1.37,0.32c-0.2,4.19-0.16,8.38-0.28,12.57c-0.11,4-0.25,8.01-0.93,11.97
		c-0.27,1.53-0.48,3.09-1,4.57c-0.33,0.03-0.75-0.03-0.78,0.43c-0.01,0.21-0.05,0.55,0.32,0.66c0.29,0.09,0.57,0.1,0.86,0.01
		c1.83,0.2,4.88,1.2,5.66,1.84c-0.14,0.22-0.36,0.13-0.55,0.14c-4.26,0.14-8.52,0.19-12.78,0.13c-0.74-0.01-1.48-0.1-2.22-0.16
		c-0.15-0.01-0.34-0.03-0.4-0.19c-0.06-0.17,0.1-0.29,0.2-0.4c0.86-0.92,1.99-1.28,3.18-1.49c0.55-0.1,1.12-0.12,1.68-0.18
		c0.23,0,0.46-0.01,0.7-0.01c0.24-0.02,0.47-0.05,0.71-0.07c0.25,0.55,0.66,0.62,1.05,0.21c0.2-0.22,0.08-0.47,0.13-0.7
		c1.37-4,1.87-8.15,2.19-12.33c0.32-4.22,0.43-8.46,0.56-12.69C1509.8,950.98,1509.82,949.43,1510.1,947.9z"/>
	<path class="st14" d="M1508.79,947.54c-0.12-0.28-0.29-0.56-0.33-0.85c-0.05-0.37,0.01-0.74,0.45-0.93
		c0.45-0.19,0.87-0.23,1.24,0.12c0.2,0.19,0.21,0.47,0.03,0.67c-0.25,0.3-0.29,0.64-0.32,1
		C1509.5,947.77,1509.15,947.51,1508.79,947.54z"/>
	<path class="st14" d="M1511.9,947.68c-0.05-0.29,0.04-0.58-0.07-0.87c-0.13-0.36-0.08-0.75,0.26-0.97c0.31-0.2,0.66-0.11,0.92,0.18
		c0.28,0.32,0.48,0.67,0.28,1.1c-0.08,0.18-0.21,0.34-0.32,0.52C1512.62,947.75,1512.27,947.93,1511.9,947.68z"/>
	<path class="st13" d="M1509.65,978.43c-0.29,0.09-0.56,0.08-0.86-0.01c-0.37-0.12-0.33-0.46-0.32-0.66
		c0.03-0.46,0.45-0.4,0.78-0.43c0.1,0.04,0.25,0.02,0.25,0.19c-0.06,0.1-0.09,0.2-0.01,0.3c0.06-0.06,0.11-0.11,0.17-0.17
		c0.23-0.07,0.21,0.08,0.18,0.21C1509.79,978.05,1509.72,978.24,1509.65,978.43z"/>
	<path class="st13" d="M1507,977.54c-0.05,0.23,0.07,0.48-0.13,0.7c-0.39,0.42-0.8,0.34-1.05-0.21c-0.14-0.56,0.29-0.52,0.6-0.52
		C1506.61,977.51,1506.8,977.69,1507,977.54z"/>
	<path class="st13" d="M1505.11,978.11c-0.23,0-0.46,0.01-0.7,0.01c-0.2-0.39,0.12-0.55,0.36-0.57
		C1505.08,977.53,1505.21,977.79,1505.11,978.11z"/>
	<path class="st15" d="M1518.3,941.51c-0.02-0.05-0.07-0.13-0.05-0.14c0.06-0.07,0.14-0.04,0.2,0.02
		C1518.4,941.42,1518.35,941.46,1518.3,941.51z"/>
	<path class="st15" d="M1509.66,977.65c-0.06,0.06-0.11,0.11-0.17,0.17c-0.09-0.1-0.06-0.2,0.01-0.3
		C1509.55,977.56,1509.61,977.61,1509.66,977.65z"/>
</g>
<text transform="matrix(1 0 0 1 1665.167 95.3145)" class="st3 st16 st17">Login</text>
<text transform="matrix(1 0 0 1 1760.167 95.3145)" class="st3 st16 st17">Signup</text>
<text transform="matrix(1 0 0 1 1571.0605 1044.1777)" class="st5 st16 st18">Contacts</text>
<text transform="matrix(1 0 0 1 868.0605 1044.1777)" class="st19 st16 st18">copyright©oparadize</text>
<text transform="matrix(1 0 0 1 1680.0605 1044.1777)" class="st5 st16 st18">Mentions legales</text>
<path class="st13" d="M1529.15,990c-0.14-6.42-11.02-11.6-24.43-11.6s-24.29,5.18-24.43,11.6H1529.15z"/>
</svg>
