<svg xmlns="http://www.w3.org/2000/svg" viewBox="0 0 627.4 184.07"><defs><style>.cls-1{fill:#ffe858;}.cls-2{fill:#406f8a;}.cls-3{fill:#f5e83d;}.cls-4{fill:#fff;}.cls-5{fill:#b6c8d6;}.cls-6{fill:#f5faff;}.cls-7{fill:#daeaf9;}</style></defs><g id="Calque_2" data-name="Calque 2"><g id="Calque_1-2" data-name="Calque 1"><path class="cls-1" d="M498.48,126.56H468V113.28h30.47a3.19,3.19,0,0,0,2.34-1,3.23,3.23,0,0,0,1-2.35,1.81,1.81,0,0,0-1-1.85,5.55,5.55,0,0,0-2.34-.44H484.61a16,16,0,0,1-6.49-1.32,16.86,16.86,0,0,1-5.28-3.59,17.1,17.1,0,0,1-3.54-5.3,17,17,0,0,1,0-13,17,17,0,0,1,3.54-5.27,16.56,16.56,0,0,1,5.28-3.54,16.35,16.35,0,0,1,6.49-1.29h27V87.65h-27A3.33,3.33,0,0,0,481.29,91a3.32,3.32,0,0,0,1,2.41,3.15,3.15,0,0,0,2.34,1h13.87a18.07,18.07,0,0,1,6.44,1.14,16.38,16.38,0,0,1,5.28,3.2,15.1,15.1,0,0,1,3.56,4.93,14.94,14.94,0,0,1,1.32,6.3,15.9,15.9,0,0,1-1.32,6.47,17.26,17.26,0,0,1-3.56,5.27,16.41,16.41,0,0,1-11.72,4.86Z"/><path class="cls-2" d="M498.48,123.56H468V110.28h30.47a3.19,3.19,0,0,0,2.34-1,3.23,3.23,0,0,0,1-2.35,1.81,1.81,0,0,0-1-1.85,5.55,5.55,0,0,0-2.34-.44H484.61a16,16,0,0,1-6.49-1.32,16.86,16.86,0,0,1-5.28-3.59,17.1,17.1,0,0,1-3.54-5.3,17,17,0,0,1,0-13,17,17,0,0,1,3.54-5.27,16.56,16.56,0,0,1,5.28-3.54,16.35,16.35,0,0,1,6.49-1.29h27V84.65h-27A3.33,3.33,0,0,0,481.29,88a3.32,3.32,0,0,0,1,2.41,3.15,3.15,0,0,0,2.34,1h13.87a18.07,18.07,0,0,1,6.44,1.14,16.38,16.38,0,0,1,5.28,3.2,15.1,15.1,0,0,1,3.56,4.93,14.94,14.94,0,0,1,1.32,6.3,15.9,15.9,0,0,1-1.32,6.47,17.26,17.26,0,0,1-3.56,5.27,16.41,16.41,0,0,1-11.72,4.86Z"/><path class="cls-3" d="M167.39,51.79a26.26,26.26,0,0,1-.39,4.34,24.69,24.69,0,0,1-1.24,4.6,21.48,21.48,0,0,1-2.23,4.34,13.77,13.77,0,0,1-3.31,3.49l-5-3.49a13.06,13.06,0,0,0,1.88-2.8,16.22,16.22,0,0,0,1-2.67,7.59,7.59,0,0,1-2.58-.92,7.38,7.38,0,0,1-2-1.72,8.38,8.38,0,0,1-1.36-2.37,7.76,7.76,0,0,1-.5-2.8,7.32,7.32,0,0,1,.62-3,8.14,8.14,0,0,1,4.18-4.2,7.24,7.24,0,0,1,3-.62,7.66,7.66,0,0,1,3.1.62,7.54,7.54,0,0,1,2.5,1.7,8.09,8.09,0,0,1,1.68,2.5A7.32,7.32,0,0,1,167.39,51.79Z"/><path class="cls-1" d="M148.2,90.72a33.3,33.3,0,0,1-1.22,9,34.7,34.7,0,0,1-3.42,8.14,33.91,33.91,0,0,1-5.33,6.91,34.92,34.92,0,0,1-6.9,5.36,33.75,33.75,0,0,1-8.13,3.44,34.1,34.1,0,0,1-18.08,0A34.32,34.32,0,0,1,81.27,99.75a33.84,33.84,0,0,1,3.45-26.21,34.16,34.16,0,0,1,5.35-6.89A33.35,33.35,0,0,1,97,61.32a34.48,34.48,0,0,1,8.13-3.43,34.37,34.37,0,0,1,18.08,0A34,34,0,0,1,147,81.67,33.61,33.61,0,0,1,148.2,90.72Zm-13.1,0a20.44,20.44,0,0,0-1.65-8.15A20.93,20.93,0,0,0,122.3,71.42a21,21,0,0,0-16.33,0,21.48,21.48,0,0,0-6.66,4.49,20.86,20.86,0,0,0-4.51,6.66,20.44,20.44,0,0,0-1.65,8.15,20,20,0,0,0,1.65,8.11,21.38,21.38,0,0,0,4.51,6.65A21.16,21.16,0,0,0,106,110a21,21,0,0,0,16.33,0,21,21,0,0,0,6.67-4.5,21.82,21.82,0,0,0,4.48-6.65A20,20,0,0,0,135.1,90.72Z"/><path class="cls-2" d="M167.39,47.79a26.26,26.26,0,0,1-.39,4.34,24.69,24.69,0,0,1-1.24,4.6,21.48,21.48,0,0,1-2.23,4.34,13.77,13.77,0,0,1-3.31,3.49l-5-3.49a13.06,13.06,0,0,0,1.88-2.8,16.22,16.22,0,0,0,1-2.67,7.59,7.59,0,0,1-2.58-.92,7.38,7.38,0,0,1-2-1.72,8.38,8.38,0,0,1-1.36-2.37,7.76,7.76,0,0,1-.5-2.8,7.32,7.32,0,0,1,.62-3,8.14,8.14,0,0,1,4.18-4.2,7.24,7.24,0,0,1,3-.62,7.66,7.66,0,0,1,3.1.62,7.54,7.54,0,0,1,2.5,1.7,8.09,8.09,0,0,1,1.68,2.5A7.32,7.32,0,0,1,167.39,47.79Z"/><path class="cls-1" d="M308.75,123.4H296.21V74.18h3L303.38,80a22.22,22.22,0,0,1,14.88-5.75h11.08v12.5H318.26a9.54,9.54,0,0,0-3.72.74,9.28,9.28,0,0,0-5.05,5,9.55,9.55,0,0,0-.74,3.73Z"/><path class="cls-1" d="M381.9,123.4h-3L374,116.64a39.73,39.73,0,0,1-3.79,3,27.5,27.5,0,0,1-4.2,2.44,26.11,26.11,0,0,1-4.53,1.63,18.78,18.78,0,0,1-4.71.6,27.21,27.21,0,0,1-9.76-1.75,23.38,23.38,0,0,1-8-5.08,23.89,23.89,0,0,1-5.4-8.15,28.75,28.75,0,0,1-2-11,27.37,27.37,0,0,1,2-10.54,25.24,25.24,0,0,1,5.4-8.25,24.57,24.57,0,0,1,8-5.36,25.12,25.12,0,0,1,9.76-1.9,19.46,19.46,0,0,1,4.73.59,25.07,25.07,0,0,1,4.55,1.66A28.69,28.69,0,0,1,370.26,77,35,35,0,0,1,374,80.11l4.87-5.84h3ZM369.27,98.35a13,13,0,0,0-1-5,14.23,14.23,0,0,0-2.69-4.28,13.36,13.36,0,0,0-4-3A10.83,10.83,0,0,0,356.77,85a13.46,13.46,0,0,0-4.85.87A11.05,11.05,0,0,0,348,88.43a12.09,12.09,0,0,0-2.64,4.2,17.35,17.35,0,0,0,0,11.44,12.23,12.23,0,0,0,2.64,4.21,11,11,0,0,0,3.95,2.57,13.46,13.46,0,0,0,4.85.87,10.82,10.82,0,0,0,4.85-1.12,13.4,13.4,0,0,0,4-3,14.18,14.18,0,0,0,2.69-4.27A13,13,0,0,0,369.27,98.35Z"/><path class="cls-1" d="M439,123.4h-3l-4.87-6.76a39.73,39.73,0,0,1-3.79,3,27.13,27.13,0,0,1-4.21,2.44,25.43,25.43,0,0,1-4.52,1.63,18.78,18.78,0,0,1-4.71.6,24.5,24.5,0,0,1-9.77-2,24.85,24.85,0,0,1-8-5.42,25.64,25.64,0,0,1-5.4-8.22,28.07,28.07,0,0,1,0-20.71,25.87,25.87,0,0,1,5.4-8.27,25,25,0,0,1,8-5.47,24.51,24.51,0,0,1,9.77-2,22.68,22.68,0,0,1,3.42.27,18.63,18.63,0,0,1,3.45.9,14.26,14.26,0,0,1,3.15,1.63,9.74,9.74,0,0,1,2.48,2.48v-23H439ZM426.39,98.35a13,13,0,0,0-1-5,14.23,14.23,0,0,0-2.69-4.28,13.36,13.36,0,0,0-4-3A10.8,10.8,0,0,0,413.89,85a12.88,12.88,0,0,0-4.85.92,11.43,11.43,0,0,0-4,2.64,12.27,12.27,0,0,0-2.64,4.21,15.19,15.19,0,0,0-1,5.6,14,14,0,0,0,3.61,9.42,12.44,12.44,0,0,0,4,2.9,11.43,11.43,0,0,0,4.85,1,10.79,10.79,0,0,0,4.85-1.12,13.4,13.4,0,0,0,4-3,14.18,14.18,0,0,0,2.69-4.27A13,13,0,0,0,426.39,98.35Z"/><path class="cls-1" d="M463.38,60.81a8.09,8.09,0,0,1-.67,3.26,8.25,8.25,0,0,1-1.82,2.64,8.71,8.71,0,0,1-2.68,1.8,8.3,8.3,0,0,1-3.29.66,8.21,8.21,0,0,1-3.28-.66,8.45,8.45,0,0,1-4.46-4.44,8.22,8.22,0,0,1,0-6.5A8.48,8.48,0,0,1,449,54.91a8.6,8.6,0,0,1,2.67-1.8,8.21,8.21,0,0,1,3.28-.66,8.3,8.3,0,0,1,3.29.66,8.89,8.89,0,0,1,2.68,1.8,8.3,8.3,0,0,1,2.49,5.9Zm-2.16,62.59H448.58V74.18h12.64Z"/><path class="cls-1" d="M541,111.36a7.68,7.68,0,0,0,1.47.3q.73.06,1.47.06a12.26,12.26,0,0,0,3.54-.5,12.77,12.77,0,0,0,3.19-1.45,11.7,11.7,0,0,0,2.67-2.3,12.33,12.33,0,0,0,1.91-3l9.19,9.23a25.13,25.13,0,0,1-4,4.46,25.52,25.52,0,0,1-4.91,3.35,24.54,24.54,0,0,1-5.56,2.09,25.54,25.54,0,0,1-15.76-1.21,24.67,24.67,0,0,1-8-5.38,25.33,25.33,0,0,1-5.4-8.2,27,27,0,0,1-2-10.46,27.84,27.84,0,0,1,2-10.66,24.13,24.13,0,0,1,13.4-13.51,25.48,25.48,0,0,1,9.76-1.88,24.74,24.74,0,0,1,6,.73A25.54,25.54,0,0,1,564.5,83Zm6.43-25.87a6.85,6.85,0,0,0-1.72-.42,16.77,16.77,0,0,0-1.77-.09,12.7,12.7,0,0,0-4.85.94,11.6,11.6,0,0,0-3.95,2.69,12.66,12.66,0,0,0-2.64,4.21,14.85,14.85,0,0,0-1,5.53c0,.46,0,1,.07,1.57s.13,1.17.23,1.76.24,1.18.39,1.73a7,7,0,0,0,.6,1.47Z"/><path class="cls-2" d="M148.2,86.62a33.41,33.41,0,0,1-1.22,9,34.81,34.81,0,0,1-3.42,8.13,34,34,0,0,1-5.33,6.92,35.25,35.25,0,0,1-6.9,5.35,33.56,33.56,0,0,1-17.18,4.66,33.3,33.3,0,0,1-9-1.21A34.12,34.12,0,0,1,97,116.05a34.51,34.51,0,0,1-6.92-5.35,34.32,34.32,0,0,1-8.8-15,33.85,33.85,0,0,1,3.45-26.22,34.16,34.16,0,0,1,5.35-6.89A33.35,33.35,0,0,1,97,57.21a34.45,34.45,0,0,1,8.13-3.42,34.1,34.1,0,0,1,18.08,0A34,34,0,0,1,147,77.56,33.69,33.69,0,0,1,148.2,86.62Zm-13.1,0a20.45,20.45,0,0,0-1.65-8.16A20.87,20.87,0,0,0,122.3,67.32a20.91,20.91,0,0,0-16.33,0,21.28,21.28,0,0,0-6.66,4.48,20.86,20.86,0,0,0-4.51,6.66,20.45,20.45,0,0,0-1.65,8.16,20.11,20.11,0,0,0,1.65,8.11,21.45,21.45,0,0,0,4.51,6.64,21.16,21.16,0,0,0,6.66,4.5,21,21,0,0,0,16.33,0,21,21,0,0,0,6.67-4.5,21.89,21.89,0,0,0,4.48-6.64A20.11,20.11,0,0,0,135.1,86.62Z"/><path class="cls-2" d="M308.75,119.29H296.21V70.07h3l4.14,5.84a22.15,22.15,0,0,1,14.88-5.74h11.08v12.5H318.26a9.53,9.53,0,0,0-3.72.73,9.3,9.3,0,0,0-3,2,9.41,9.41,0,0,0-2,3,9.55,9.55,0,0,0-.74,3.73Z"/><path class="cls-2" d="M381.9,119.29h-3L374,112.53a38.21,38.21,0,0,1-3.79,3A27.5,27.5,0,0,1,366,118a26.11,26.11,0,0,1-4.53,1.63,18.78,18.78,0,0,1-4.71.6,27,27,0,0,1-9.76-1.75,23,23,0,0,1-8-5.08,23.89,23.89,0,0,1-5.4-8.15,28.74,28.74,0,0,1-2-11,27.42,27.42,0,0,1,2-10.55,25.24,25.24,0,0,1,5.4-8.25,24.28,24.28,0,0,1,8-5.35,25.09,25.09,0,0,1,9.76-1.91,19,19,0,0,1,4.73.6,25,25,0,0,1,4.55,1.65,28.69,28.69,0,0,1,4.21,2.48A35,35,0,0,1,374,76l4.87-5.83h3Zm-12.63-25a13,13,0,0,0-1-5A14.18,14.18,0,0,0,365.59,85a13.23,13.23,0,0,0-4-3,10.83,10.83,0,0,0-4.85-1.13,13.47,13.47,0,0,0-4.85.88A11,11,0,0,0,348,84.32a11.94,11.94,0,0,0-2.64,4.2,17.38,17.38,0,0,0,0,11.45,12,12,0,0,0,2.64,4.2,11,11,0,0,0,3.95,2.57,13.26,13.26,0,0,0,4.85.88,10.83,10.83,0,0,0,4.85-1.13,13.4,13.4,0,0,0,4-3,14.18,14.18,0,0,0,2.69-4.27A13,13,0,0,0,369.27,94.25Z"/><path class="cls-2" d="M439,119.29h-3l-4.87-6.76a38.21,38.21,0,0,1-3.79,3,27.13,27.13,0,0,1-4.21,2.44,25.43,25.43,0,0,1-4.52,1.63,18.78,18.78,0,0,1-4.71.6,24.7,24.7,0,0,1-17.76-7.38,25.53,25.53,0,0,1-5.4-8.22,28,28,0,0,1,0-20.7,25.8,25.8,0,0,1,5.4-8.28,25,25,0,0,1,8-5.46,24.34,24.34,0,0,1,9.77-2,21.49,21.49,0,0,1,3.42.28,17.85,17.85,0,0,1,3.45.89A14.7,14.7,0,0,1,423.91,71a9.74,9.74,0,0,1,2.48,2.48v-23H439Zm-12.63-25a13,13,0,0,0-1-5A14.18,14.18,0,0,0,422.71,85a13.23,13.23,0,0,0-4-3,10.8,10.8,0,0,0-4.85-1.13,12.88,12.88,0,0,0-4.85.92,11.57,11.57,0,0,0-4,2.64,12.27,12.27,0,0,0-2.64,4.21,15.21,15.21,0,0,0-1,5.61,14,14,0,0,0,3.61,9.41,12.29,12.29,0,0,0,4,2.9,11.29,11.29,0,0,0,4.85,1.06,10.8,10.8,0,0,0,4.85-1.13,13.4,13.4,0,0,0,4-3,14.18,14.18,0,0,0,2.69-4.27A13,13,0,0,0,426.39,94.25Z"/><path class="cls-2" d="M463.38,56.7a8.14,8.14,0,0,1-.67,3.27,8.25,8.25,0,0,1-1.82,2.64,8.86,8.86,0,0,1-2.68,1.79,8.31,8.31,0,0,1-3.29.67,8.22,8.22,0,0,1-3.28-.67A8.38,8.38,0,0,1,447.18,60a8.24,8.24,0,0,1,0-6.51A8.33,8.33,0,0,1,451.64,49a8.05,8.05,0,0,1,3.28-.67,8.14,8.14,0,0,1,3.29.67,8.68,8.68,0,0,1,2.68,1.79,8.3,8.3,0,0,1,2.49,5.9Zm-2.16,62.59H448.58V70.07h12.64Z"/><path class="cls-2" d="M541,107.25a7.68,7.68,0,0,0,1.47.3c.49,0,1,.07,1.47.07a12.27,12.27,0,0,0,3.54-.51,12.77,12.77,0,0,0,3.19-1.45,11.66,11.66,0,0,0,2.67-2.29,12.59,12.59,0,0,0,1.91-3l9.19,9.23a25.25,25.25,0,0,1-8.94,7.81,25.05,25.05,0,0,1-5.56,2.1,25.52,25.52,0,0,1-6,.71,25,25,0,0,1-9.76-1.93,24.67,24.67,0,0,1-8-5.38,25.33,25.33,0,0,1-5.4-8.2,27,27,0,0,1-2-10.45,27.85,27.85,0,0,1,2-10.67,24.69,24.69,0,0,1,5.4-8.22,24.43,24.43,0,0,1,8-5.29,25.48,25.48,0,0,1,9.76-1.88,24.75,24.75,0,0,1,6,.74,25.41,25.41,0,0,1,14.57,10Zm6.43-25.87a7.84,7.84,0,0,0-1.72-.42,16.77,16.77,0,0,0-1.77-.09,12.7,12.7,0,0,0-4.85.94,11.6,11.6,0,0,0-3.95,2.69,12.66,12.66,0,0,0-2.64,4.21,14.9,14.9,0,0,0-1,5.54c0,.45,0,1,.07,1.56s.13,1.17.23,1.77.24,1.17.39,1.72a7,7,0,0,0,.6,1.47Z"/><path class="cls-1" d="M286.65,123.4h-3l-4.87-6.76a38.52,38.52,0,0,1-3.79,3,27.5,27.5,0,0,1-4.2,2.44,25.81,25.81,0,0,1-4.53,1.63,18.66,18.66,0,0,1-4.71.6,27.21,27.21,0,0,1-9.76-1.75,23.38,23.38,0,0,1-8-5.08,23.89,23.89,0,0,1-5.4-8.15,28.75,28.75,0,0,1-2-11,27.36,27.36,0,0,1,2-10.54,25.24,25.24,0,0,1,5.4-8.25,24.57,24.57,0,0,1,8-5.36,25.12,25.12,0,0,1,9.76-1.9,19.54,19.54,0,0,1,4.74.59,25.34,25.34,0,0,1,4.55,1.66A28.59,28.59,0,0,1,275,77a35,35,0,0,1,3.74,3.08l4.87-5.84h3ZM274,98.35a13,13,0,0,0-1-5,14.2,14.2,0,0,0-2.68-4.28,13.41,13.41,0,0,0-4-3A10.8,10.8,0,0,0,261.51,85a13.5,13.5,0,0,0-4.85.87,11.14,11.14,0,0,0-4,2.58,12.09,12.09,0,0,0-2.64,4.2,17.52,17.52,0,0,0,0,11.44,12.23,12.23,0,0,0,2.64,4.21,11.11,11.11,0,0,0,4,2.57,13.5,13.5,0,0,0,4.85.87,10.79,10.79,0,0,0,4.85-1.12,13.44,13.44,0,0,0,4-3,14.16,14.16,0,0,0,2.68-4.27A13,13,0,0,0,274,98.35Z"/><path class="cls-2" d="M286.65,119.29h-3l-4.87-6.76a37.09,37.09,0,0,1-3.79,3,27.5,27.5,0,0,1-4.2,2.44,25.81,25.81,0,0,1-4.53,1.63,18.66,18.66,0,0,1-4.71.6,27,27,0,0,1-9.76-1.75,23.08,23.08,0,0,1-8-5.08,23.89,23.89,0,0,1-5.4-8.15,28.74,28.74,0,0,1-2-11,27.41,27.41,0,0,1,2-10.55,25.24,25.24,0,0,1,5.4-8.25,24.38,24.38,0,0,1,8-5.35,25.13,25.13,0,0,1,9.76-1.91,19.07,19.07,0,0,1,4.74.6,25.3,25.3,0,0,1,4.55,1.65,28.59,28.59,0,0,1,4.2,2.48A35,35,0,0,1,278.74,76l4.87-5.83h3ZM274,94.25a13,13,0,0,0-1-5A14.16,14.16,0,0,0,270.34,85a13.27,13.27,0,0,0-4-3,10.8,10.8,0,0,0-4.85-1.13,13.51,13.51,0,0,0-4.85.88,11.11,11.11,0,0,0-4,2.57,12.09,12.09,0,0,0-2.64,4.2,17.55,17.55,0,0,0,0,11.45,12.18,12.18,0,0,0,2.64,4.2,11.11,11.11,0,0,0,4,2.57,13.29,13.29,0,0,0,4.85.88,10.8,10.8,0,0,0,4.85-1.13,13.44,13.44,0,0,0,4-3A14.16,14.16,0,0,0,273,99.23,13,13,0,0,0,274,94.25Z"/><path class="cls-1" d="M193.09,123.4H179.9V57.5h26.38a26,26,0,0,1,7,.94,26.33,26.33,0,0,1,6.28,2.67,27.27,27.27,0,0,1,5.33,4.13A26.16,26.16,0,0,1,229,70.6a26.75,26.75,0,0,1,2.67,6.29,26.34,26.34,0,0,1-1.13,17.21,26.43,26.43,0,0,1-14,14,25.56,25.56,0,0,1-10.23,2.07H193.09Zm0-52.71V97.07h13.19a12.68,12.68,0,0,0,5.1-1,13.2,13.2,0,0,0,7-7,13.27,13.27,0,0,0,0-10.25,13.35,13.35,0,0,0-2.83-4.2,13.15,13.15,0,0,0-4.18-2.83,12.84,12.84,0,0,0-5.1-1Z"/><path class="cls-2" d="M193.09,119.29H179.9V53.39h26.38a25.57,25.57,0,0,1,7,1A25.9,25.9,0,0,1,219.54,57a26.94,26.94,0,0,1,5.33,4.14A26.1,26.1,0,0,1,229,66.49a26.75,26.75,0,0,1,2.67,6.29A26.34,26.34,0,0,1,230.54,90a26.43,26.43,0,0,1-14,14,25.56,25.56,0,0,1-10.23,2.07H193.09Zm0-52.71V93h13.19a12.68,12.68,0,0,0,5.1-1,13.2,13.2,0,0,0,7-7,13.24,13.24,0,0,0,0-10.24,13.2,13.2,0,0,0-7-7,12.68,12.68,0,0,0-5.1-1Z"/><path class="cls-4" d="M593.23,14.32S607.38-3.81,627.4,3.24C625.68-1.23,598.79-3.76,593.23,14.32Z"/><ellipse class="cls-5" cx="29.98" cy="40.45" rx="22.88" ry="22.02"/><circle class="cls-5" cx="49.42" cy="45.8" r="24.66"/><circle class="cls-3" cx="54.22" cy="31.96" r="24.66"/><circle class="cls-6" cx="56.34" cy="31.96" r="24.66"/><ellipse class="cls-5" cx="76.19" cy="43.46" rx="23.65" ry="24.29"/><ellipse class="cls-6" cx="74.51" cy="38.37" rx="24.66" ry="22.4"/><circle class="cls-5" cx="92.76" cy="53.14" r="12.37"/><ellipse class="cls-6" cx="93.26" cy="43.03" rx="16.16" ry="14.08"/><circle class="cls-5" cx="12.46" cy="48.41" r="12.37"/><circle class="cls-7" cx="27.65" cy="38.98" r="21.17"/><circle class="cls-7" cx="48.81" cy="43.13" r="22.81"/><circle class="cls-7" cx="53.26" cy="30.33" r="22.81"/><circle class="cls-7" cx="55.22" cy="30.33" r="22.81"/><circle class="cls-7" cx="74.51" cy="40.63" r="22.81"/><circle class="cls-7" cx="94.4" cy="47.29" r="16.15"/><circle class="cls-7" cx="89.69" cy="38.98" r="11.44"/><circle class="cls-7" cx="11.44" cy="47.13" r="11.44"/><path class="cls-4" d="M78.88,40s9-14,21.63-8.55C99.42,28,82.39,26,78.88,40Z"/><path class="cls-4" d="M56.34,26.67s9-14,21.64-8.55C76.89,14.66,59.86,12.71,56.34,26.67Z"/><ellipse class="cls-5" cx="428.96" cy="141.89" rx="24.13" ry="23.22"/><circle class="cls-5" cx="456.53" cy="149.03" r="32.62"/><ellipse class="cls-5" cx="542.94" cy="151.94" rx="31.28" ry="32.13"/><ellipse class="cls-5" cx="498.94" cy="150.94" rx="31.28" ry="32.13"/><ellipse class="cls-6" cx="540.72" cy="145.21" rx="32.62" ry="29.63"/><ellipse class="cls-6" cx="456.72" cy="143.21" rx="32.62" ry="29.63"/><ellipse class="cls-6" cx="497.72" cy="147.21" rx="32.62" ry="29.63"/><circle class="cls-5" cx="571.86" cy="149.74" r="16.36"/><ellipse class="cls-6" cx="572.52" cy="136.37" rx="21.38" ry="18.63"/><circle class="cls-5" cx="402.64" cy="132.48" r="16.36"/><circle class="cls-7" cx="426.5" cy="140.34" r="22.32"/><circle class="cls-7" cx="455.73" cy="145.5" r="30.17"/><circle class="cls-7" cx="496.61" cy="149.57" r="30.17"/><circle class="cls-7" cx="499.2" cy="149.57" r="30.17"/><circle class="cls-7" cx="540.72" cy="148.19" r="30.17"/><circle class="cls-7" cx="574.03" cy="142" r="21.36"/><circle class="cls-5" cx="598.34" cy="141.03" r="10.7"/><ellipse class="cls-6" cx="598.78" cy="132.29" rx="13.98" ry="12.18"/><circle class="cls-7" cx="599.76" cy="135.97" r="13.97"/><circle class="cls-7" cx="560.8" cy="146.02" r="15.13"/><circle class="cls-7" cx="401.3" cy="130.8" r="15.13"/><path class="cls-4" d="M544.73,140s19-11,30.61,3.14C576.17,138.37,557.36,125.7,544.73,140Z"/><path class="cls-4" d="M493.22,142.55S507,132.1,517.47,142C517.65,138.23,501.7,130.17,493.22,142.55Z"/><path class="cls-4" d="M432.41,135.42s16.44-5.44,23.13,7.29C456.93,139.19,444.42,126.43,432.41,135.42Z"/></g></g></svg>